<svg xmlns="http://www.w3.org/2000/svg" enable-background="new 0 0 23 28.5" viewBox="0 0 23 28.5"><path d="M4 9.5V22c0 .825.675 1.5 1.5 1.5H7V27c0 .825.675 1.5 1.5 1.5S10 27.825 10 27v-3.5h3V27c0 .825.675 1.5 1.5 1.5S16 27.825 16 27v-3.5h1.5c.825 0 1.5-.675 1.5-1.5V9.5H4zM1.5 19.5L1.5 19.5C.675 19.5 0 18.825 0 18v-7c0-.825.675-1.5 1.5-1.5h0C2.325 9.5 3 10.175 3 11v7C3 18.825 2.325 19.5 1.5 19.5zM21.5 19.5L21.5 19.5c-.825 0-1.5-.675-1.5-1.5v-7c0-.825.675-1.5 1.5-1.5h0c.825 0 1.5.675 1.5 1.5v7C23 18.825 22.325 19.5 21.5 19.5zM4 8.5h15c-.451-2.223-1.868-4.093-3.792-5.161l1.708-2.561c.153-.23.091-.54-.139-.693-.231-.153-.541-.091-.693.139l-1.791 2.686c-.866-.34-1.806-.532-2.793-.532S9.573 2.569 8.707 2.909L6.916.223c-.153-.23-.463-.292-.693-.139S5.931.548 6.084.778l1.708 2.561C5.868 4.407 4.451 6.277 4 8.5zM14.5 4.5c.552 0 1 .448 1 1s-.448 1-1 1-1-.448-1-1S13.948 4.5 14.5 4.5zM8.5 4.5c.552 0 1 .448 1 1s-.448 1-1 1-1-.448-1-1S7.948 4.5 8.5 4.5z"/></svg>